<svg width="75" height="55" viewBox="0 0 75 55" fill="none" xmlns="http://www.w3.org/2000/svg">
<circle cx="37.0833" cy="32.9167" r="22.0833" fill="#FFD600"/>
<path d="M28.7502 30.8333C30.361 30.8333 31.6668 29.5275 31.6668 27.9167C31.6668 26.3058 30.361 25 28.7502 25C27.1393 25 25.8335 26.3058 25.8335 27.9167C25.8335 29.5275 27.1393 30.8333 28.7502 30.8333Z" fill="#0F0F5E"/>
<path d="M46.2502 30.8333C47.861 30.8333 49.1668 29.5275 49.1668 27.9167C49.1668 26.3058 47.861 25 46.2502 25C44.6393 25 43.3335 26.3058 43.3335 27.9167C43.3335 29.5275 44.6393 30.8333 46.2502 30.8333Z" fill="#0F0F5E"/>
<path d="M30.8335 38.3334C30.8335 40.1015 31.5359 41.7972 32.7861 43.0474C34.0364 44.2977 35.7321 45 37.5002 45C39.2683 45 40.964 44.2977 42.2142 43.0474C43.4644 41.7972 44.1668 40.1015 44.1668 38.3334C44.1631 37.4739 43.9874 36.6239 43.6502 35.8334H31.3502C31.0129 36.6239 30.8372 37.4739 30.8335 38.3334Z" fill="#0F0F5E"/>
<path fill-rule="evenodd" clip-rule="evenodd" d="M43.4345 41.6449C42.3829 39.6744 40.3065 38.3334 37.917 38.3334C35.3366 38.3334 33.1215 39.8971 32.1675 42.1286C32.3935 42.455 32.6497 42.7628 32.9344 43.0474C34.1846 44.2977 35.8803 45 37.6484 45C39.4165 45 41.1122 44.2977 42.3625 43.0474C42.7841 42.6258 43.1434 42.1535 43.4345 41.6449Z" fill="#FC0757"/>
<path d="M26.0391 13.8088C25.255 13.8083 24.4884 14.0429 23.8365 14.483C23.1846 14.9232 22.6769 15.5489 22.3776 16.2809C22.3526 16.3395 22.3112 16.3894 22.2584 16.4244C22.2057 16.4595 22.1439 16.4782 22.0807 16.4782C22.0176 16.4782 21.9558 16.4595 21.903 16.4244C21.8503 16.3894 21.8089 16.3395 21.7839 16.2809C21.4353 15.4238 20.8028 14.7157 19.9946 14.2774C19.1863 13.8392 18.2524 13.6981 17.3526 13.8783C16.4527 14.0585 15.6428 14.5488 15.0612 15.2654C14.4796 15.9819 14.1625 16.8802 14.1641 17.8068C14.1641 20.6394 18.1383 24.1411 20.4551 25.9417C21.4193 26.6911 22.7422 26.6911 23.7063 25.9417C26.0231 24.1411 29.9974 20.6394 29.9974 17.8068C29.9974 16.7464 29.5804 15.7296 28.838 14.9798C28.0957 14.23 27.0889 13.8088 26.0391 13.8088Z" fill="#FC0757"/>
<path d="M28.3335 0.00425975C27.8383 0.00391334 27.3541 0.150576 26.9424 0.425648C26.5307 0.700719 26.21 1.0918 26.021 1.5493C26.0052 1.58592 25.979 1.61711 25.9457 1.63902C25.9124 1.66093 25.8734 1.67261 25.8335 1.67261C25.7936 1.67261 25.7546 1.66093 25.7213 1.63902C25.688 1.61711 25.6618 1.58592 25.646 1.5493C25.4259 1.01364 25.0264 0.571041 24.5159 0.297151C24.0054 0.0232613 23.4156 -0.064908 22.8473 0.0477147C22.279 0.160337 21.7674 0.46676 21.4001 0.914601C21.0328 1.36244 20.8325 1.92389 20.8335 2.50298C20.8335 4.05896 22.7723 5.93792 24.2353 7.13425C25.1725 7.90058 26.4945 7.90058 27.4316 7.13425C28.8947 5.93792 30.8335 4.05896 30.8335 2.50298C30.8335 1.84028 30.5701 1.20472 30.1013 0.736118C29.6324 0.267517 28.9965 0.00425975 28.3335 0.00425975Z" fill="#FC0757"/>
<path d="M72.5 28.3376C72.0048 28.3373 71.5206 28.484 71.1089 28.759C70.6972 29.0341 70.3765 29.4252 70.1875 29.8827C70.1717 29.9193 70.1455 29.9505 70.1122 29.9724C70.0789 29.9943 70.0399 30.006 70 30.006C69.9601 30.006 69.9211 29.9943 69.8878 29.9724C69.8545 29.9505 69.8283 29.9193 69.8125 29.8827C69.5924 29.347 69.1929 28.9044 68.6824 28.6305C68.1719 28.3566 67.5821 28.2685 67.0138 28.3811C66.4455 28.4937 65.9339 28.8001 65.5666 29.248C65.1993 29.6958 64.999 30.2573 65 30.8364C65 32.3923 66.9388 34.2713 68.4019 35.4676C69.339 36.234 70.661 36.234 71.5982 35.4676C73.0612 34.2713 75 32.3923 75 30.8364C75 30.1737 74.7366 29.5381 74.2678 29.0695C73.7989 28.6009 73.163 28.3376 72.5 28.3376Z" fill="#FC0757"/>
<path d="M6.25 34.17C5.83732 34.1698 5.43384 34.2871 5.09076 34.5071C4.74767 34.7272 4.48042 35.0401 4.32292 35.4061C4.30976 35.4354 4.28796 35.4603 4.26019 35.4778C4.23242 35.4954 4.19991 35.5047 4.16667 35.5047C4.13343 35.5047 4.10091 35.4954 4.07315 35.4778C4.04538 35.4603 4.02357 35.4354 4.01042 35.4061C3.82696 34.9775 3.49408 34.6235 3.06868 34.4043C2.64328 34.1852 2.15176 34.1147 1.67816 34.2048C1.20456 34.2949 0.778275 34.54 0.472179 34.8983C0.166083 35.2566 -0.000819265 35.7057 3.02395e-06 36.169C3.02395e-06 37.3414 1.43328 38.743 2.61859 39.7017C3.52822 40.4374 4.80511 40.4374 5.71474 39.7017C6.90005 38.743 8.33333 37.3414 8.33333 36.169C8.33333 35.6388 8.11384 35.1304 7.72314 34.7555C7.33244 34.3806 6.80253 34.17 6.25 34.17Z" fill="#FC0757"/>
</svg>
