<svg width="52" height="42" viewBox="0 0 52 42" fill="none" xmlns="http://www.w3.org/2000/svg">
<ellipse cx="26" cy="35" rx="26" ry="7" fill="#6520ED" fill-opacity="0.28"/>
<path d="M45.5426 14.2941H7.66357V18.093H45.5426V14.2941Z" fill="#3B276F"/>
<path d="M4.05225 17.3863L11.0143 10.6357V14.9664L8.43603 17.267L4.05225 17.3863Z" fill="#DA6313"/>
<path d="M48.5075 17.43L41.7817 10.6357L41.7829 14.9664L44.093 17.267L48.5075 17.43Z" fill="#DA6313"/>
<path d="M41.7827 10.6357H11.0146V14.9675H41.7827V10.6357Z" fill="#DA5917"/>
<path d="M41.7824 10.6357H11.0143L4.05225 17.3863H48.5069L41.7824 10.6357ZM12.112 11.0623H40.3432C40.9819 11.0639 41.5938 11.3189 42.0447 11.7713L46.6317 16.3595C46.6794 16.4069 46.7121 16.4673 46.7256 16.5332C46.7391 16.5991 46.7328 16.6675 46.7076 16.7299C46.6823 16.7922 46.6392 16.8457 46.5837 16.8837C46.5281 16.9216 46.4626 16.9423 46.3954 16.9432H6.23233C6.14564 16.9429 6.061 16.9169 5.98915 16.8684C5.91731 16.8198 5.86151 16.7511 5.82883 16.6708C5.79616 16.5905 5.78809 16.5023 5.80565 16.4174C5.82322 16.3325 5.86562 16.2548 5.92747 16.1941L10.5204 11.7146C10.9457 11.298 11.5168 11.064 12.112 11.0623Z" fill="#FFEE39"/>
<path d="M44.5704 18.6448H6.69141V34.6226H44.5704V18.6448Z" fill="url(#paint0_linear_250_1973)"/>
<path d="M47.8142 17.2668H4.67352C4.55465 17.2668 4.43696 17.2903 4.32715 17.3357C4.21733 17.3812 4.11755 17.4479 4.0335 17.5319C3.94945 17.616 3.88279 17.7158 3.8373 17.8256C3.79181 17.9354 3.7684 18.0531 3.7684 18.172V20.417C3.76665 20.4316 3.76665 20.4462 3.7684 20.4607L6.44948 35.1624C6.5138 35.5154 6.7002 35.8345 6.97605 36.0639C7.2519 36.2933 7.59963 36.4184 7.95841 36.4173H44.5707C44.9287 36.4173 45.2753 36.2917 45.5502 36.0623C45.825 35.833 46.0107 35.5146 46.0749 35.1624L48.7572 20.4655C48.7583 20.4509 48.7583 20.4363 48.7572 20.4218V18.2133C48.7575 17.9628 48.6584 17.7224 48.4816 17.545C48.3048 17.3675 48.0647 17.2675 47.8142 17.2668ZM42.0243 33.2458H10.5048C10.4471 33.2463 10.3912 33.2257 10.3477 33.1878C10.3041 33.1499 10.276 33.0974 10.2685 33.0402L8.33534 20.7195C8.32884 20.685 8.33011 20.6496 8.33904 20.6156C8.34797 20.5817 8.36434 20.5502 8.38697 20.5234C8.4096 20.4965 8.43791 20.4751 8.46986 20.4606C8.50181 20.4461 8.53658 20.4389 8.57166 20.4395H43.9539C43.989 20.4389 44.0238 20.4461 44.0557 20.4606C44.0877 20.4751 44.116 20.4965 44.1386 20.5234C44.1612 20.5502 44.1776 20.5817 44.1865 20.6156C44.1955 20.6496 44.1967 20.685 44.1902 20.7195L42.263 33.0402C42.2555 33.0978 42.227 33.1507 42.1829 33.1886C42.1389 33.2265 42.0824 33.2469 42.0243 33.2458Z" fill="url(#paint1_linear_250_1973)"/>
<path d="M44.5701 34.5044C44.5701 34.6584 44.5244 34.809 44.4388 34.937C44.3533 35.0651 44.2317 35.1649 44.0894 35.2238C43.9471 35.2827 43.7905 35.2982 43.6395 35.2681C43.4884 35.2381 43.3497 35.1639 43.2408 35.055C43.1319 34.9461 43.0577 34.8074 43.0277 34.6563C42.9976 34.5053 43.013 34.3487 43.072 34.2064C43.1309 34.0641 43.2307 33.9425 43.3588 33.8569C43.4868 33.7714 43.6374 33.7257 43.7914 33.7257C43.8936 33.7257 43.9949 33.7459 44.0894 33.785C44.1838 33.8241 44.2697 33.8815 44.342 33.9538C44.4143 34.0261 44.4717 34.1119 44.5108 34.2064C44.5499 34.3009 44.5701 34.4021 44.5701 34.5044Z" fill="#FFD217"/>
<path d="M45.7316 29.2096C45.7318 29.3639 45.6863 29.5148 45.6007 29.6432C45.5152 29.7716 45.3935 29.8717 45.251 29.9309C45.1085 29.9901 44.9517 30.0058 44.8003 29.9758C44.649 29.9458 44.5099 29.8717 44.4007 29.7626C44.2915 29.6536 44.2171 29.5147 44.1869 29.3634C44.1568 29.212 44.1721 29.0552 44.2311 28.9126C44.2901 28.77 44.3901 28.6482 44.5183 28.5624C44.6466 28.4767 44.7974 28.4309 44.9517 28.4309C45.1584 28.4309 45.3566 28.5129 45.5028 28.6589C45.649 28.8049 45.7313 29.003 45.7316 29.2096Z" fill="#FFD217"/>
<path d="M46.5232 23.9088C46.5232 24.0628 46.4775 24.2134 46.392 24.3414C46.3064 24.4695 46.1848 24.5693 46.0425 24.6282C45.9002 24.6872 45.7436 24.7026 45.5926 24.6725C45.4415 24.6425 45.3028 24.5683 45.1939 24.4594C45.085 24.3505 45.0108 24.2118 44.9808 24.0607C44.9507 23.9097 44.9662 23.7531 45.0251 23.6108C45.084 23.4685 45.1838 23.3469 45.3119 23.2614C45.4399 23.1758 45.5905 23.1301 45.7445 23.1301C45.951 23.1301 46.1491 23.2122 46.2951 23.3582C46.4411 23.5042 46.5232 23.7023 46.5232 23.9088Z" fill="#FFD217"/>
<path d="M47.1306 18.9637C47.1306 19.1178 47.0849 19.2683 46.9994 19.3964C46.9138 19.5244 46.7922 19.6242 46.6499 19.6831C46.5076 19.7421 46.3511 19.7575 46.2 19.7275C46.049 19.6974 45.9102 19.6233 45.8013 19.5144C45.6924 19.4055 45.6182 19.2667 45.5882 19.1157C45.5582 18.9646 45.5736 18.808 45.6325 18.6658C45.6915 18.5235 45.7913 18.4019 45.9193 18.3163C46.0474 18.2307 46.1979 18.1851 46.3519 18.1851C46.5584 18.1851 46.7565 18.2671 46.9025 18.4131C47.0486 18.5592 47.1306 18.7572 47.1306 18.9637Z" fill="#FFD217"/>
<path d="M7.72168 34.5044C7.72168 34.6584 7.76735 34.809 7.85291 34.937C7.93847 35.0651 8.06009 35.1649 8.20237 35.2238C8.34466 35.2827 8.50123 35.2982 8.65228 35.2681C8.80333 35.2381 8.94207 35.1639 9.05097 35.055C9.15987 34.9461 9.23404 34.8074 9.26408 34.6563C9.29413 34.5053 9.27871 34.3487 9.21977 34.2064C9.16083 34.0641 9.06103 33.9425 8.93297 33.8569C8.80492 33.7714 8.65437 33.7257 8.50036 33.7257C8.29384 33.7257 8.09578 33.8077 7.94975 33.9538C7.80372 34.0998 7.72168 34.2979 7.72168 34.5044Z" fill="#FFD217"/>
<path d="M14.6694 34.5044C14.6694 34.6584 14.7151 34.809 14.8007 34.937C14.8862 35.0651 15.0078 35.1649 15.1501 35.2238C15.2924 35.2827 15.449 35.2982 15.6 35.2681C15.7511 35.2381 15.8898 35.1639 15.9987 35.055C16.1076 34.9461 16.1818 34.8074 16.2118 34.6563C16.2419 34.5053 16.2265 34.3487 16.1675 34.2064C16.1086 34.0641 16.0088 33.9425 15.8807 33.8569C15.7527 33.7714 15.6021 33.7257 15.4481 33.7257C15.3459 33.7257 15.2446 33.7459 15.1501 33.785C15.0557 33.8241 14.9698 33.8815 14.8975 33.9538C14.8252 34.0261 14.7678 34.1119 14.7287 34.2064C14.6896 34.3009 14.6694 34.4021 14.6694 34.5044Z" fill="#FFD217"/>
<path d="M21.6172 34.5044C21.6172 34.6584 21.6629 34.809 21.7484 34.937C21.834 35.0651 21.9556 35.1649 22.0979 35.2238C22.2402 35.2827 22.3967 35.2982 22.5478 35.2681C22.6988 35.2381 22.8376 35.1639 22.9465 35.055C23.0554 34.9461 23.1295 34.8074 23.1596 34.6563C23.1896 34.5053 23.1742 34.3487 23.1153 34.2064C23.0563 34.0641 22.9565 33.9425 22.8285 33.8569C22.7004 33.7714 22.5499 33.7257 22.3959 33.7257C22.2936 33.7257 22.1924 33.7459 22.0979 33.785C22.0034 33.8241 21.9176 33.8815 21.8453 33.9538C21.773 34.0261 21.7156 34.1119 21.6765 34.2064C21.6373 34.3009 21.6172 34.4021 21.6172 34.5044Z" fill="#FFD217"/>
<path d="M28.5649 34.5044C28.5649 34.6584 28.6106 34.809 28.6962 34.937C28.7817 35.0651 28.9033 35.1649 29.0456 35.2238C29.1879 35.2827 29.3445 35.2982 29.4955 35.2681C29.6466 35.2381 29.7853 35.1639 29.8942 35.055C30.0031 34.9461 30.0773 34.8074 30.1073 34.6563C30.1374 34.5053 30.122 34.3487 30.063 34.2064C30.0041 34.0641 29.9043 33.9425 29.7762 33.8569C29.6482 33.7714 29.4976 33.7257 29.3436 33.7257C29.2414 33.7257 29.1401 33.7459 29.0456 33.785C28.9512 33.8241 28.8653 33.8815 28.793 33.9538C28.7207 34.0261 28.6633 34.1119 28.6242 34.2064C28.5851 34.3009 28.5649 34.4021 28.5649 34.5044Z" fill="#FFD217"/>
<path d="M35.5132 34.5044C35.5132 34.6584 35.5589 34.809 35.6444 34.937C35.73 35.0651 35.8516 35.1649 35.9939 35.2238C36.1362 35.2827 36.2927 35.2982 36.4438 35.2681C36.5948 35.2381 36.7336 35.1639 36.8425 35.055C36.9514 34.9461 37.0255 34.8074 37.0556 34.6563C37.0856 34.5053 37.0702 34.3487 37.0113 34.2064C36.9523 34.0641 36.8525 33.9425 36.7245 33.8569C36.5964 33.7714 36.4459 33.7257 36.2919 33.7257C36.1896 33.7257 36.0884 33.7459 35.9939 33.785C35.8994 33.8241 35.8136 33.8815 35.7413 33.9538C35.6689 34.0261 35.6116 34.1119 35.5725 34.2064C35.5333 34.3009 35.5132 34.4021 35.5132 34.5044Z" fill="#FFD217"/>
<path d="M11.394 18.8527C11.394 19.0067 11.4397 19.1572 11.5253 19.2853C11.6108 19.4133 11.7325 19.5131 11.8747 19.5721C12.017 19.631 12.1736 19.6464 12.3246 19.6164C12.4757 19.5863 12.6144 19.5122 12.7233 19.4033C12.8322 19.2944 12.9064 19.1556 12.9364 19.0046C12.9665 18.8535 12.9511 18.697 12.8921 18.5547C12.8332 18.4124 12.7334 18.2908 12.6053 18.2052C12.4773 18.1196 12.3267 18.074 12.1727 18.074C11.9662 18.074 11.7681 18.156 11.6221 18.302C11.4761 18.4481 11.394 18.6461 11.394 18.8527Z" fill="#FFD217"/>
<path d="M19.118 19.6313C19.5481 19.6313 19.8967 19.2827 19.8967 18.8527C19.8967 18.4226 19.5481 18.074 19.118 18.074C18.688 18.074 18.3394 18.4226 18.3394 18.8527C18.3394 19.2827 18.688 19.6313 19.118 19.6313Z" fill="#FFD217"/>
<path d="M33.014 19.6313C33.4441 19.6313 33.7927 19.2827 33.7927 18.8527C33.7927 18.4226 33.4441 18.074 33.014 18.074C32.584 18.074 32.2354 18.4226 32.2354 18.8527C32.2354 19.2827 32.584 19.6313 33.014 19.6313Z" fill="#FFD217"/>
<path d="M39.2627 18.8527C39.2627 19.0067 39.3084 19.1572 39.3939 19.2853C39.4795 19.4133 39.6011 19.5131 39.7434 19.5721C39.8857 19.631 40.0422 19.6464 40.1933 19.6164C40.3443 19.5863 40.4831 19.5122 40.592 19.4033C40.7009 19.2944 40.7751 19.1556 40.8051 19.0046C40.8351 18.8535 40.8197 18.697 40.7608 18.5547C40.7019 18.4124 40.602 18.2908 40.474 18.2052C40.3459 18.1196 40.1954 18.074 40.0414 18.074C39.8349 18.074 39.6368 18.156 39.4908 18.302C39.3447 18.4481 39.2627 18.6461 39.2627 18.8527Z" fill="#FFD217"/>
<path d="M6.56006 29.2096C6.56006 29.3636 6.60573 29.5142 6.69129 29.6422C6.77685 29.7703 6.89847 29.8701 7.04075 29.929C7.18304 29.9879 7.33961 30.0034 7.49066 29.9733C7.64171 29.9433 7.78046 29.8691 7.88936 29.7602C7.99826 29.6513 8.07242 29.5126 8.10246 29.3615C8.13251 29.2105 8.11709 29.0539 8.05815 28.9116C7.99922 28.7693 7.89941 28.6477 7.77136 28.5621C7.6433 28.4766 7.49275 28.4309 7.33874 28.4309C7.13222 28.4309 6.93416 28.5129 6.78813 28.659C6.6421 28.805 6.56006 29.0031 6.56006 29.2096Z" fill="#FFD217"/>
<path d="M5.76709 23.9088C5.76709 24.0628 5.81276 24.2134 5.89832 24.3414C5.98388 24.4695 6.1055 24.5693 6.24778 24.6282C6.39007 24.6872 6.54664 24.7026 6.69769 24.6725C6.84874 24.6425 6.98748 24.5683 7.09638 24.4594C7.20529 24.3505 7.27945 24.2118 7.3095 24.0607C7.33954 23.9097 7.32412 23.7531 7.26518 23.6108C7.20625 23.4685 7.10644 23.3469 6.97839 23.2614C6.85033 23.1758 6.69978 23.1301 6.54577 23.1301C6.33925 23.1301 6.14119 23.2122 5.99516 23.3582C5.84913 23.5042 5.76709 23.7023 5.76709 23.9088Z" fill="#FFD217"/>
<path d="M5.16016 18.9637C5.16016 19.1178 5.20583 19.2683 5.29139 19.3964C5.37695 19.5244 5.49856 19.6242 5.64085 19.6831C5.78314 19.7421 5.9397 19.7575 6.09075 19.7275C6.2418 19.6974 6.38055 19.6233 6.48945 19.5144C6.59836 19.4055 6.67252 19.2667 6.70256 19.1157C6.73261 18.9646 6.71719 18.808 6.65825 18.6658C6.59931 18.5235 6.49951 18.4019 6.37146 18.3163C6.2434 18.2307 6.09285 18.1851 5.93884 18.1851C5.73232 18.1851 5.53426 18.2671 5.38823 18.4131C5.2422 18.5592 5.16016 18.7572 5.16016 18.9637Z" fill="#FFD217"/>
<path d="M9.27513 0.4941C9.27513 0.4941 25.2964 -0.617625 42.1478 0.4941L44.3776 1.15683L45.6547 15.8909L4.67285 15.4469L6.56777 1.82287L9.27513 0.4941Z" fill="url(#paint2_linear_250_1973)"/>
<path d="M46.4352 1.23716C46.2788 0.859606 46.0563 0.546914 45.7896 0.329953C45.5229 0.112993 45.2213 -0.000732321 44.9145 3.54854e-06H42.5028C42.4402 -2.03765e-05 42.3788 0.0246603 42.3254 0.0713308C42.2719 0.118001 42.2285 0.184853 42.1999 0.264527C42.1714 0.344201 42.1587 0.433608 42.1633 0.522912C42.168 0.612217 42.1898 0.697956 42.2263 0.770693C45.8798 8.03816 44.7077 14.7327 44.7077 14.7327H7.28715C7.28715 14.7327 6.11972 8.03478 9.76854 0.770693C9.80512 0.697839 9.82692 0.611946 9.83152 0.522492C9.83613 0.433038 9.82336 0.343502 9.79464 0.263771C9.76591 0.18404 9.72234 0.117214 9.66873 0.070668C9.61513 0.0241221 9.55357 -0.000332309 9.49086 3.54854e-06H7.08509C6.77846 -0.000606101 6.47702 0.113187 6.21054 0.330149C5.94405 0.547112 5.72173 0.859739 5.56554 1.23716C4.47846 3.86697 2.24284 9.4849 3.25785 15.86C3.33612 16.3457 3.52753 16.7789 3.80066 17.0885C4.07378 17.3981 4.41238 17.5656 4.76086 17.5636H47.2399C47.5883 17.5651 47.9268 17.3972 48.1997 17.0873C48.4726 16.7774 48.6637 16.344 48.7417 15.8583C49.7579 9.4849 47.5211 3.87373 46.4352 1.23716Z" fill="url(#paint3_linear_250_1973)"/>
<path d="M44.3996 10.3355H7.68799L7.89595 9.69385H44.1408L44.3996 10.3355Z" fill="#4A30AA"/>
<path d="M43.7989 4.82338H8.20117L8.4364 4.18176H43.5637L43.7989 4.82338Z" fill="#4A30AA"/>
<path d="M43.164 26.6336H9.38279L9.27881 26.0439H43.2668L43.164 26.6336Z" fill="#4A30AA"/>
<path d="M28.497 17.0236H23.3073C22.9429 17.0236 22.5933 17.1683 22.3356 17.4261C22.0779 17.6838 21.9331 18.0333 21.9331 18.3978V21.2407C21.9331 21.9993 22.1564 22.3148 23.3073 22.3148H28.497C29.4694 22.3148 29.8712 21.9993 29.8712 21.2407V18.3978C29.8712 18.0333 29.7264 17.6838 29.4687 17.4261C29.211 17.1683 28.8614 17.0236 28.497 17.0236Z" fill="#EF8412"/>
<path d="M28.497 16.3051H23.3073C22.5484 16.3051 21.9331 16.9203 21.9331 17.6793V20.5222C21.9331 21.2812 22.5484 21.8964 23.3073 21.8964H28.497C29.2559 21.8964 29.8712 21.2812 29.8712 20.5222V17.6793C29.8712 16.9203 29.2559 16.3051 28.497 16.3051Z" fill="#FDCB08"/>
<path d="M26.761 18.1509C26.7613 18.3209 26.7111 18.4871 26.6168 18.6285C26.5226 18.7699 26.3885 18.8802 26.2316 18.9454C26.0746 19.0106 25.9019 19.0278 25.7351 18.9948C25.5684 18.9618 25.4152 18.8801 25.295 18.76C25.1747 18.6399 25.0928 18.4868 25.0596 18.3201C25.0263 18.1535 25.0433 17.9807 25.1082 17.8237C25.1732 17.6666 25.2833 17.5324 25.4246 17.4379C25.5659 17.3435 25.7321 17.2931 25.902 17.2931C26.1296 17.2931 26.3479 17.3834 26.509 17.5443C26.6701 17.7051 26.7607 17.9233 26.761 18.1509Z" fill="#3B276F"/>
<path d="M25.902 18.152L25.1528 20.5601H26.761L25.902 18.152Z" fill="#3B276F"/>
<defs>
<linearGradient id="paint0_linear_250_1973" x1="25.6309" y1="18.6448" x2="25.6309" y2="34.6226" gradientUnits="userSpaceOnUse">
<stop stop-color="#641FEE"/>
<stop offset="1" stop-color="#A85AFF"/>
</linearGradient>
<linearGradient id="paint1_linear_250_1973" x1="26.2626" y1="17.2668" x2="26.2626" y2="36.4173" gradientUnits="userSpaceOnUse">
<stop stop-color="#FED903"/>
<stop offset="1" stop-color="#EF8521"/>
</linearGradient>
<linearGradient id="paint2_linear_250_1973" x1="25.1638" y1="0" x2="25.1638" y2="15.8909" gradientUnits="userSpaceOnUse">
<stop stop-color="#7954FD"/>
<stop offset="1" stop-color="#7B2CEF"/>
</linearGradient>
<linearGradient id="paint3_linear_250_1973" x1="26" y1="0" x2="26" y2="17.5636" gradientUnits="userSpaceOnUse">
<stop stop-color="#FEF270"/>
<stop offset="1" stop-color="#FFD217"/>
</linearGradient>
</defs>
</svg>
